<?xml version="1.0" standalone="no"?><!DOCTYPE svg PUBLIC "-//W3C//DTD SVG 1.1//EN" "http://www.w3.org/Graphics/SVG/1.1/DTD/svg11.dtd"><svg t="1670484839444" class="icon" viewBox="0 0 1024 1024" version="1.1" xmlns="http://www.w3.org/2000/svg" p-id="8797" xmlns:xlink="http://www.w3.org/1999/xlink" width="200" height="200"><path d="M145.621959 0c-44.79888 0-79.998 36.81188-79.998 81.61076v860.77848c0 44.79888 35.19912 81.61076 79.998 81.61076h732.781681a81.969151 81.969151 0 0 0 81.61076-81.61076V324.80468L657.60916 0h-511.987201z" fill="#F17F53" p-id="8798"></path><path d="M657.60916 0v233.59416c0 25.59936 17.61236 92.79768 97.61036 92.79768h204.79488L657.60916 0z" fill="#FFFFFF" p-id="8799"></path><path d="M270.751631 761.068973a1533.708857 1533.708857 0 0 0 13.286068-58.571335l3.455914-16.793181 3.609509-17.612359 4.121497-19.941902 7.193421-34.78953c1.20317-5.887853 2.022349-10.982125 2.483137-15.231619s0.665583-8.166196 0.665584-11.775706c0-3.788705 0.102397-7.167821 0.307192-10.137346s0.742381-5.452664 1.638359-7.500613 2.227144-3.60951 3.967901-4.659083 4.172696-1.58716 7.270218-1.587161c4.505487 0 8.0126 0.614385 10.495738 1.868754s4.351891 2.867128 5.555061 4.863878 1.919952 4.300692 2.175946 6.911827 0.38399 5.299068 0.38399 8.089398c3.404715-2.40634 7.372616-4.556686 11.929302-6.451039s9.266968-3.481513 14.182045-4.735881 9.855754-2.227144 14.847629-2.918327 9.702157-1.049574 14.105247-1.049574c7.19342 0 13.490863 1.279968 18.892328 3.814304s9.906952 5.939052 13.490863 10.188546 6.297443 9.138972 8.089398 14.694032 2.687933 11.263718 2.687932 17.177171c0 6.911827-1.100772 13.388465-3.302317 19.506712s-5.19667 11.801305-9.010975 17.100373-8.217395 10.214145-13.286068 14.77083-10.495738 8.729382-16.357991 12.518088-11.903702 7.270218-18.149946 10.418939-12.41569 5.964651-18.533937 8.473388c-4.095898 1.689558-7.987 2.969526-11.622109 3.814305s-6.937427 1.279968-9.830154 1.279968c-4.095898 0-8.063798-0.460788-11.929302-1.356766s-7.577411-2.40634-11.18692-4.505488c-1.99675 6.80943-3.686308 13.311667-5.017475 19.506713s-2.431939 11.698908-3.225519 16.511587c-0.511987 2.995125-1.100772 6.143846-1.791956 9.446164l-2.099147 9.676558-2.022349 8.934177c-0.639984 2.81593-1.177571 5.19667-1.587161 7.19342-0.307192 1.20317-1.023974 2.201545-2.175945 2.995125s-2.534337 1.484763-4.121497 2.022349a29.336867 29.336867 0 0 1-9.292568 1.587161c-7.398215 0-11.110122-2.892728-11.110122-8.703783a24.242594 24.242594 0 0 1 0.819179-5.043074z m46.514037-86.986625a176.737982 176.737982 0 0 1 9.753357 1.638359c1.58716 0.307192 2.969526 0.563186 4.121496 0.81918s1.919952 0.38399 2.329542 0.38399c1.894353 0 4.0191-0.255994 6.374241-0.742382s4.710282-1.151971 7.039824-1.945551 4.633484-1.663958 6.835029-2.636734 4.147096-1.868753 5.862253-2.764731c4.889478-2.508737 10.137347-5.529462 15.666809-9.062173s10.700532-7.628609 15.462013-12.236494 8.678183-9.753356 11.775706-15.462014 4.659084-12.0061 4.659083-18.892328c0-2.79033-0.358391-5.401465-1.049573-7.807804s-1.740756-4.505487-3.148722-6.297443-3.225519-3.225519-5.478263-4.275093-4.915077-1.58716-8.012599-1.58716c-3.404715 0-6.604635 0.230394-9.59976 0.665583s-5.939052 1.177571-8.857379 2.175946-5.811055 2.278343-8.703782 3.814304-5.887853 3.430314-9.010975 5.631859c-2.79033 2.303942-5.939052 4.326292-9.446164 6.067049s-7.295818 2.867128-11.391715 3.379115l-15.180421 59.134522zM444.161696 761.068973a1533.708857 1533.708857 0 0 0 13.286068-58.571335l3.455913-16.793181 3.60951-17.612359 4.121497-19.941902 7.19342-34.78953c1.20317-5.887853 2.022349-10.982125 2.483138-15.231619s0.665583-8.166196 0.665584-11.775706c0-3.788705 0.102397-7.167821 0.307192-10.137346s0.742381-5.452664 1.638359-7.500613 2.227144-3.60951 3.967901-4.659083 4.172696-1.58716 7.270218-1.587161c4.505487 0 8.0126 0.614385 10.495738 1.868754s4.351891 2.867128 5.555061 4.863878 1.919952 4.300692 2.175945 6.911827 0.38399 5.299068 0.383991 8.089398c3.404715-2.40634 7.372616-4.556686 11.929301-6.451039s9.266968-3.481513 14.182046-4.735881 9.855754-2.227144 14.847629-2.918327 9.702157-1.049574 14.105247-1.049574c7.19342 0 13.490863 1.279968 18.892328 3.814304s9.906952 5.939052 13.490863 10.188546 6.297443 9.138972 8.089397 14.694032 2.687933 11.263718 2.687933 17.177171c0 6.911827-1.100772 13.388465-3.302317 19.506712s-5.19667 11.801305-9.010975 17.100373-8.217395 10.214145-13.286068 14.77083-10.495738 8.729382-16.357991 12.518088-11.903702 7.270218-18.149946 10.418939-12.41569 5.964651-18.533937 8.473388c-4.095898 1.689558-7.987 2.969526-11.622109 3.814305s-6.937427 1.279968-9.830155 1.279968c-4.095898 0-8.063798-0.460788-11.929301-1.356766s-7.577411-2.40634-11.186921-4.505488c-1.99675 6.80943-3.686308 13.311667-5.017474 19.506713s-2.431939 11.698908-3.22552 16.511587c-0.511987 2.995125-1.100772 6.143846-1.791955 9.446164l-2.099147 9.676558-2.02235 8.934177c-0.639984 2.81593-1.177571 5.19667-1.58716 7.19342-0.307192 1.20317-1.023974 2.201545-2.175946 2.995125s-2.534337 1.484763-4.121497 2.022349a29.336867 29.336867 0 0 1-9.292567 1.587161c-7.398215 0-11.110122-2.892728-11.110123-8.703783a21.247469 21.247469 0 0 1 0.81918-5.043074z m46.488438-86.986625a176.737982 176.737982 0 0 1 9.753356 1.638359c1.58716 0.307192 2.969526 0.563186 4.121497 0.81918s1.919952 0.38399 2.329542 0.38399c1.894353 0 4.0191-0.255994 6.37424-0.742382s4.710282-1.151971 7.039824-1.945551 4.633484-1.663958 6.835029-2.636734 4.147096-1.868753 5.862254-2.764731c4.889478-2.508737 10.137347-5.529462 15.666808-9.062173s10.700532-7.628609 15.462014-12.236494 8.678183-9.753356 11.775705-15.462014 4.659084-12.0061 4.659084-18.892328c0-2.79033-0.358391-5.401465-1.049574-7.807804s-1.740756-4.505487-3.148721-6.297443-3.225519-3.225519-5.478263-4.275093-4.915077-1.58716-8.0126-1.58716c-3.404715 0-6.604635 0.230394-9.59976 0.665583s-5.939052 1.177571-8.857379 2.175946-5.811055 2.278343-8.703782 3.814304-5.887853 3.430314-9.010975 5.631859c-2.79033 2.303942-5.939052 4.326292-9.446164 6.067049s-7.295818 2.867128-11.391715 3.379115l-15.18042 59.134522zM652.054099 658.927527c0-8.39659 0.947176-17.125972 2.841529-26.162546s3.891103-17.714757 5.99025-26.034549c-2.611135-0.102397-5.247869-0.511987-7.961401-1.20317s-5.145471-1.638359-7.347016-2.841529-3.9935-2.662333-5.401465-4.428689-2.099148-3.763106-2.099148-6.067049a19.020324 19.020324 0 0 1 2.303942-7.57741c0.742381-1.356766 1.715157-2.508737 2.918328-3.455914s2.559936-1.433564 4.044698-1.433564h20.095498c1.894353 0 3.19992-0.81918 3.891103-2.483138s1.254369-3.276718 1.638359-4.863878c1.305567-5.811055 2.534337-10.828529 3.686308-15.078023l2.918327-10.80293c0.79358-2.943926 1.433564-5.350266 1.868753-7.193421a20.581885 20.581885 0 0 0 0.511987-8.166195 61.003275 61.003275 0 0 1-0.153596-4.940677v-1.510362c0-0.79358 0.076798-1.843154 0.230394-3.148721s0.614385-3.148721 1.433564-5.555062c0.588785-1.894353 1.689558-3.711907 3.302318-5.401464s3.942301-2.559936 7.039824-2.559936c2.687933 0 4.991875 0.537587 6.911827 1.638359s3.455914 2.559936 4.659084 4.351891 2.099148 3.839904 2.687932 6.143846 0.895978 4.607885 0.895978 6.911827c0 2.508737-0.255994 4.761481-0.742381 6.758231l-10.956527 42.00855c5.401465-0.895978 10.188545-1.740756 14.41244-2.559936l12.594885-2.40634c4.607885-0.895978 8.575786-1.740756 11.929302-2.559936s6.220644-1.484763 8.626984-2.022349l6.067049-1.356766a19.967501 19.967501 0 0 1 4.121497-0.537587c1.61276 0 3.225519 0.127997 4.863878 0.383991s3.097523 0.665583 4.351891 1.279968 2.278343 1.459164 3.071923 2.559936 1.20317 2.559936 1.20317 4.351891c0 2.40634-0.486388 4.531087-1.433564 6.374241s-2.175946 3.455914-3.686308 4.812679-3.19992 2.457539-5.094272 3.302318-3.788705 1.484763-5.708658 1.868753c-1.61276 0.307192-3.686308 0.742381-6.220644 1.356766s-5.350266 1.254369-8.39659 1.945551-6.220644 1.459164-9.522962 2.252744-6.502237 1.61276-9.59976 2.40634c-4.607885 1.20317-8.524587 2.201545-11.775706 2.995125s-6.01585 1.407965-8.319792 1.791955-4.172696 0.691183-5.631859 0.895978-2.636734 0.307192-3.532712 0.307192c-1.894353 5.708657-3.558311 11.289318-4.940676 16.79318s-2.585535 10.623734-3.532712 15.385216-1.638359 9.010975-2.099147 12.748481-0.665583 6.681433-0.665584 8.78058c0 2.687933 0.255994 5.273468 0.742382 7.731007s1.356766 4.582285 2.559936 6.374241 2.81593 3.225519 4.863878 4.275093 4.633484 1.58716 7.731007 1.58716c5.299068 0 10.495738-1.459164 15.59001-4.351891s9.98375-6.579036 14.617235-11.033324 9.062173-9.318167 13.20927-14.617235 7.987-10.342141 11.468513-15.154821c1.20317-1.791955 2.739132-2.687933 4.659083-2.687933a9.574161 9.574161 0 0 1 4.659084 1.356766c0.81918 0.511987 1.484763 1.151971 2.022349 1.945552s0.81918 1.740756 0.81918 2.841529a7.679808 7.679808 0 0 1-0.153596 1.791955c-1.61276 6.195045-4.070298 12.41569-7.423815 18.661933s-6.78383 12.518087-10.265343 18.81553c-1.20317 2.201545-2.764731 4.351891-4.735882 6.451039s-4.070298 4.121497-6.37424 6.067048-4.710282 3.788705-7.193421 5.555061-4.838279 3.327917-7.039824 4.735882c-3.788705 2.40634-7.961401 4.044699-12.441288 4.940676s-8.857379 1.356766-13.055674 1.356766c-6.502237 0-12.262093-1.177571-17.330767-3.532711s-9.292568-5.555061-12.748481-9.59976-6.067048-8.78058-7.884603-14.182046-2.585535-11.18692-2.585535-17.381965z" fill="#FFFFFF" p-id="8800"></path></svg>