<?xml version="1.0" standalone="no"?><!DOCTYPE svg PUBLIC "-//W3C//DTD SVG 1.1//EN" "http://www.w3.org/Graphics/SVG/1.1/DTD/svg11.dtd"><svg t="1670484845864" class="icon" viewBox="0 0 1024 1024" version="1.1" xmlns="http://www.w3.org/2000/svg" p-id="9223" xmlns:xlink="http://www.w3.org/1999/xlink" width="200" height="200"><path d="M145.621959 0c-44.79888 0-79.998 36.81188-79.998 81.61076v860.77848c0 44.79888 35.19912 81.61076 79.998 81.61076h732.781681a81.969151 81.969151 0 0 0 81.61076-81.61076V324.80468L657.60916 0h-511.987201z" fill="#00008B" p-id="9224"></path><path d="M657.60916 0v233.59416c0 25.59936 17.61236 92.79768 97.61036 92.79768h204.79488L657.60916 0z" fill="#FFFFFF" p-id="9225"></path><path d="M242.208345 724.129097c0.40959-1.791955 0.972776-3.507112 1.715157-5.094273l2.483138-5.401465a99.530312 99.530312 0 0 0 5.836654-17.381965l5.862253-24.0122a2497.98555 2497.98555 0 0 1 9.59976-38.245444c1.61276-6.092648 3.532712-12.466888 5.785456-19.122722l7.039824-20.633084 7.423814-21.887453c2.508737-7.475013 4.761481-15.257219 6.758231-23.244219a3.839904 3.839904 0 0 0 0.153596-1.20317c0-0.79358-0.255994-1.305567-0.742381-1.510362s-1.151971-0.307192-1.945551-0.307192c-2.508737 0-4.582285-0.38399-6.220645-1.126372a10.188545 10.188545 0 0 1-5.913452-7.039824 29.18327 29.18327 0 0 1 0.998375-15.436414c1.049574-2.636734 2.40634-4.710282 4.044699-6.143846s3.455914-2.508737 5.401465-3.148722 3.839904-1.177571 5.708657-1.58716 3.481513-0.81918 4.863878-1.279968 2.40634-1.279968 2.995126-2.483138c0.998375-2.099148 1.919952-4.326292 2.76473-6.681433s1.919952-4.531087 3.22552-6.527837 2.892728-3.660708 4.81268-4.940676 4.40309-1.945551 7.500612-1.945552c2.201545 0 4.147096 0.588785 5.862253 1.791956s3.174321 2.687933 4.42869 4.505487 2.329542 3.737507 3.225519 5.785455l2.40634 5.63186a310.00825 310.00825 0 0 1 43.800505 4.198295c7.500612 1.407965 15.026824 3.507112 22.578635 6.297442s14.361241 6.425439 20.40269 10.879728 11.007725 9.702157 14.847629 15.743607 5.785455 12.978876 5.785456 20.78668c0 3.9935-0.460788 8.140596-1.356767 12.441289l-1.049573 5.247869c-0.79358 4.198295-2.483138 8.089398-5.017475 11.698907s-5.427064 6.860628-8.626984 9.753356c-8.908577 8.191795-18.661933 15.078023-29.260069 20.633085s-21.657059 10.214145-33.151171 14.028449-23.244219 6.988625-35.250319 9.59976-23.858604 5.043074-35.557511 7.347016l-4.198295 0.588785c-2.303942 0.307192-3.660708 1.151971-4.044699 2.559936-1.99675 6.911827-3.58391 12.953276-4.735881 18.149947s-2.227144 10.162946-3.22552 14.924427l-2.995125 14.258843c-0.998375 4.761481-2.252744 10.034949-3.737506 15.820405-0.511987 1.894353-1.407965 4.147096-2.687933 6.758231s-2.841529 5.043074-4.659084 7.347016-3.865503 4.275093-6.220644 5.913452-4.81268 2.483138-7.423814 2.483138c-1.791955 0-3.353516-0.511987-4.659084-1.510362s-2.38074-2.278343-3.225519-3.814305-1.510362-3.225519-1.945552-5.017474-0.665583-3.507112-0.665583-5.094273v-1.715157c0-0.537587 0-1.126372 0.204795-1.638359z m59.544111-110.845229l-0.819179 2.636734a73.828554 73.828554 0 0 0-1.715157 6.451039 11.007725 11.007725 0 0 0-0.307193 2.022349c0 0.511987 0.076798 0.921577 0.230394 1.279968s0.486388 0.537587 0.972776 0.537587c0.307192 0 1.254369-0.127997 2.841529-0.383991s3.532712-0.563186 5.785455-0.972775 4.684683-0.844779 7.270219-1.356766 5.094273-0.998375 7.500612-1.510363a343.159421 343.159421 0 0 0 42.955726-12.594885c7.347016-2.687933 14.38684-5.60626 21.068274-8.703782s12.646084-6.39984 17.842754-9.906953c5.503862-3.711907 9.906952-7.398215 13.209269-11.110122s4.940676-7.654209 4.940677-11.852503c0-2.508737-0.332792-4.735882-0.972776-6.681433s-1.382365-3.737507-2.175945-5.324667c-2.995125-4.889478-6.758231-8.754981-11.23812-11.545312s-9.394965-4.889478-14.694032-6.297442-10.854129-2.303942-16.639584-2.687933-11.494113-0.588785-17.100373-0.588785c-1.510362 0-3.763106 0.102397-6.835029 0.307192s-6.246244 0.460788-9.59976 0.742381-6.451039 0.665583-9.292568 1.126372-4.78708 0.972776-5.785455 1.587161c-0.511987 0.307192-0.921577 0.79358-1.279968 1.510362s-0.614385 1.305567-0.819179 1.791955l-3.302318 8.319792c-1.407965 3.532712-2.892728 7.526212-4.505487 11.929302s-3.276718 9.062173-5.017475 13.951651-3.430314 9.676558-5.017474 14.335642l-4.42869 13.055673a167.59901 167.59901 0 0 0-3.071923 9.932552zM445.59526 696.532987c3.404715 1.20317 6.886228 2.611135 10.41894 4.198295s7.21902 3.123122 11.033324 4.582285 7.782205 2.662333 11.929302 3.686308 8.575786 1.510362 13.286067 1.510362c5.503862 0 11.058924-0.639984 16.639584-1.945551s11.084523-3.225519 16.43479-5.785455 10.470138-5.657459 15.385215-9.292568 9.394965-7.884603 13.490863-12.671683c4.505487-5.094273 8.242994-9.727757 11.238119-13.874854s5.427064-7.859004 7.270218-11.110122 3.174321-6.041449 3.967901-8.39659 1.20317-4.377491 1.20317-6.067048c0-2.508737-0.844779-4.684683-2.559936-6.527837s-3.967901-3.379116-6.835029-4.582285-6.067048-2.073548-9.676559-2.636734-7.347016-0.81918-11.238119-0.81918c-2.303942 0-4.991875 0.076798-8.089397 0.230394l-9.446164 0.460789-9.292568 0.38399a150.39624 150.39624 0 0 1-7.807805 0.153596c-3.302317 0-6.732632-0.38399-10.265343-1.126372s-7.014225-1.971151-10.41894-3.686307-6.553436-3.9935-9.446163-6.911828a35.403915 35.403915 0 0 1-8.83178-15.743606 24.626584 24.626584 0 0 1-0.742381-6.143846c0-2.40634 0.179196-4.684683 0.537586-6.83503s0.767981-4.223894 1.279968-6.220644c1.407965-4.991875 3.737507-10.086148 6.963026-15.231619s7.142221-10.162946 11.698908-15.078023 9.497363-9.650959 14.847629-14.258844 10.854129-8.934177 16.511587-12.978875 11.21252-7.705407 16.639584-10.956526 10.521337-6.01585 15.231619-8.319792c6.604635-3.19992 13.337267-5.529462 20.172296-6.963026s13.61886-2.175946 20.325892-2.175946c3.9935 0 7.807805 0.537587 11.391715 1.58716s6.78383 2.585535 9.522962 4.582286 4.915077 4.479888 6.527837 7.423814 2.40634 6.323042 2.40634 10.137347c0 2.201545-0.255994 4.044699-0.742382 5.555061s-1.151971 2.713532-1.945551 3.686308-1.663958 1.61276-2.636734 2.022349-1.919952 0.588785-2.918327 0.588785c-2.687933 0-5.171071-0.307192-7.423815-0.895977s-4.428689-1.279968-6.527837-2.02235-4.198295-1.459164-6.297442-2.099147-4.40309-0.972776-6.911827-0.972776c-7.398215 0-14.924427 1.484763-22.578636 4.428689s-15.103622 6.707032-22.348241 11.23812-14.105247 9.625359-20.556286 15.231619-12.236494 11.058924-17.330767 16.357991c-2.687933 2.79033-4.684683 5.60626-5.913452 8.39659s-1.868753 5.452664-1.868753 7.961401c0 3.711907 1.61276 6.604635 4.812679 8.703782s7.091023 3.148721 11.698908 3.148722c2.687933 0 5.759856-0.051199 9.138971-0.153597a796.140096 796.140096 0 0 0 20.761081-0.844779c3.353516-0.153596 6.323042-0.230394 8.934177-0.230394 6.195045 0 12.159696 0.870378 17.842754 2.636734s10.751731 4.326292 15.154821 7.731007 7.935802 7.628609 10.572536 12.671683 3.967901 10.828529 3.9679 17.330767c0 3.9935-0.588785 8.038199-1.791955 12.159696s-2.841529 8.217395-4.940676 12.364491-4.505487 8.242994-7.19342 12.287693-5.555061 8.0126-8.550187 11.929301c-5.401465 6.988625-11.417315 13.59326-18.073148 19.788306s-13.721257 11.59651-21.221869 16.204395-15.436414 8.242994-23.781806 10.956526-16.921177 4.044699-25.727357 4.044699a74.724532 74.724532 0 0 1-23.551411-4.121497c-3.891103-1.356766-7.577411-3.046324-11.033324-5.094273s-6.476638-4.377491-9.062173-6.963026-4.684683-5.478263-6.220645-8.626984-2.329542-6.579036-2.329542-10.265344c0-1.791955 0.281593-3.532712 0.81918-5.17107s1.868753-2.559936 4.070298-2.559936zM624.995575 708.692683c4.607885-3.302317 9.266968-5.375866 14.028449-6.220645s9.778956-1.535962 15.078023-2.022349l37.503063-151.804205-3.379116-0.076798c-1.843154-0.051199-3.891103-0.204795-6.143846-0.460789s-4.479888-0.665583-6.681433-1.279968-3.839904-1.459164-4.940677-2.559936a54.552236 54.552236 0 0 1-4.044698-6.502237c-0.691183-1.331167-1.305567-2.713532-1.791956-4.121497s-0.742381-2.79033-0.742381-4.198295c0-2.303942 0.972776-4.223894 2.918327-5.785456s4.351891-2.79033 7.19342-3.737506 5.913452-1.61276 9.21577-2.02235 6.297443-0.588785 9.010975-0.588785c12.594885 0 24.268193 0.38399 35.019924 1.126372s20.81228 2.38074 30.156046 4.863878 18.149946 6.041449 26.39294 10.649334 16.127597 10.751731 23.62821 18.457139c2.79033 2.892728 5.478263 6.143846 8.012599 9.753356a74.238144 74.238144 0 0 1 11.494113 25.420164c1.20317 4.838279 1.791955 9.98375 1.791955 15.385216a95.792805 95.792805 0 0 1-1.663958 17.381965 115.529912 115.529912 0 0 1-30.540037 54.680233c-6.963026 6.963026-14.566036 12.978876-22.885828 18.073148s-16.895578 9.548561-25.804155 13.337267-17.945151 7.091023-27.160921 9.906952-18.149946 5.299068-26.853728 7.500613h0.153596c-3.891103 1.20317-8.089398 2.252744-12.594885 3.148721s-9.062173 1.638359-13.644459 2.252744-9.164571 1.075173-13.721257 1.433564-8.831779 0.537587-12.825279 0.537586c-4.40309 0-8.089398-0.281593-11.110123-0.819179s-5.427064-1.305567-7.270218-2.252744-3.174321-2.022349-3.967901-3.225519-1.20317-2.508737-1.20317-3.891103c0-1.99675 0.563186-4.070298 1.715158-6.220644s3.071923-4.223894 5.657458-6.118247z m65.99515-43.058124l-3.737506 15.743607c-1.279968 5.401465-2.559936 10.700532-3.737507 15.897202l3.455914-0.742381a309.470663 309.470663 0 0 0 21.913052-5.990251 212.986675 212.986675 0 0 0 32.639184-12.978875 178.427539 178.427539 0 0 0 34.866328-22.297043c5.401465-4.40309 10.137347-9.113372 14.258844-14.182045s7.372616-10.342141 9.830154-15.897203 3.686308-11.314917 3.686308-17.330766c0-6.092648-1.20317-11.878103-3.60951-17.330767s-5.631859-10.495738-9.676558-15.154821-8.754981-8.80618-14.105247-12.441289-10.930927-6.78383-16.716382-9.369366-11.673308-4.582285-17.61236-5.913452-11.570911-2.022349-16.869978-2.02235c-7.500612 19.404315-13.900452 39.090223-19.19952 59.108923s-10.470138 40.293393-15.385216 60.900877z" fill="#FFFFFF" p-id="9226"></path></svg>